<svg xmlns="http://www.w3.org/2000/svg" width="330.57" height="145.16" viewBox="0 0 330.57 145.16">
	<style type="text/css">
		.st0{fill:#f89d00;fill-rule:evenodd;}
	</style>
	<path class="st0" d="M87.84,31.75C89.93,31.7 91.66,33.36 91.7,35.45C91.74,37.53 90.08,39.26 88,39.3C85.91,39.34 84.19,37.69 84.14,35.6C84.1,33.51 85.76,31.79 87.84,31.75"/>
	<path class="st0" d="M103.04,20.1C106.28,20.03 108.96,22.61 109.03,25.85C109.09,29.08 106.52,31.76 103.28,31.83C100.04,31.9 97.36,29.32 97.29,26.09C97.23,22.85 99.8,20.17 103.04,20.1"/>
	<path class="st0" d="M122.6,9.1C126.9,9.02 130.46,12.43 130.55,16.74C130.64,21.04 127.22,24.6 122.92,24.69C118.61,24.77 115.06,21.36 114.97,17.05C114.88,12.75 118.3,9.19 122.6,9.1"/>
	<path class="st0" d="M146.14,2.55C151.28,2.44 155.53,6.52 155.64,11.67C155.74,16.81 151.66,21.06 146.52,21.17C141.38,21.27 137.12,17.19 137.02,12.05C136.91,6.91 141,2.65 146.14,2.55"/>
	<path class="st0" d="M173.44,0C179.75,-0.12 184.97,4.88 185.1,11.18C185.23,17.49 180.22,22.71 173.91,22.84C167.6,22.97 162.39,17.96 162.26,11.65C162.13,5.34 167.14,0.13 173.44,0"/>
	<path class="st0" d="M205.4,2.68C212.44,2.54 218.27,8.13 218.42,15.17C218.56,22.22 212.97,28.04 205.92,28.19C198.88,28.33 193.05,22.74 192.91,15.69C192.77,8.65 198.36,2.82 205.4,2.68"/>
	<path class="st0" d="M236.88,15.03C245.02,14.86 251.76,21.33 251.92,29.47C252.09,37.61 245.62,44.34 237.48,44.51C229.34,44.68 222.61,38.21 222.44,30.07C222.27,21.93 228.74,15.19 236.88,15.03"/>
	<path class="st0" d="M246.62,113.54C244.54,113.59 242.82,111.94 242.78,109.86C242.74,107.78 244.39,106.06 246.47,106.02C248.54,105.98 250.26,107.63 250.3,109.71C250.35,111.78 248.7,113.5 246.62,113.54"/>
	<path class="st0" d="M231.49,125.14C228.26,125.21 225.59,122.65 225.53,119.42C225.46,116.19 228.02,113.53 231.25,113.46C234.47,113.39 237.14,115.96 237.21,119.18C237.27,122.41 234.71,125.07 231.49,125.14"/>
	<path class="st0" d="M212.01,136.09C207.73,136.18 204.19,132.77 204.1,128.49C204.01,124.21 207.41,120.66 211.7,120.57C215.98,120.49 219.52,123.89 219.61,128.17C219.7,132.46 216.3,136 212.01,136.09"/>
	<path class="st0" d="M188.58,142.62C183.46,142.72 179.22,138.66 179.12,133.54C179.01,128.42 183.08,124.18 188.2,124.08C193.32,123.97 197.55,128.04 197.66,133.16C197.76,138.28 193.69,142.51 188.58,142.62"/>
	<path class="st0" d="M161.39,145.16C155.11,145.28 149.91,140.3 149.78,134.02C149.65,127.74 154.64,122.54 160.92,122.41C167.2,122.29 172.39,127.27 172.52,133.55C172.65,139.83 167.67,145.03 161.39,145.16"/>
	<path class="st0" d="M129.57,142.48C122.55,142.63 116.75,137.06 116.61,130.05C116.47,123.03 122.03,117.23 129.05,117.09C136.06,116.94 141.86,122.51 142,129.53C142.15,136.54 136.58,142.34 129.57,142.48"/>
	<path class="st0" d="M98.22,130.19C90.12,130.36 83.41,123.92 83.25,115.81C83.08,107.71 89.52,101 97.62,100.83C105.73,100.67 112.44,107.11 112.6,115.21C112.77,123.32 106.33,130.03 98.22,130.19"/>
	<path class="st0" d="M313.34,82.19L301.41,82.19C300.85,82.19 300.46,81.71 300.59,81.14C301.23,78.13 301.87,75.11 302.5,72.11C303.13,69.1 303.8,66.09 304.44,63.08C304.57,62.5 305.16,62.03 305.72,62.03L317.68,62.03C318.26,62.03 318.62,62.51 318.5,63.08C317.85,66.09 317.2,69.1 316.56,72.11C315.91,75.12 315.26,78.13 314.61,81.14C314.49,81.71 313.93,82.19 313.34,82.19M325.62,90.48C326.27,90.48 326.94,89.96 327.08,89.33C327.51,87.33 327.93,85.34 328.36,83.35C328.5,82.71 328.06,82.19 327.4,82.19L325.83,82.19C325.28,82.19 324.89,81.71 325.01,81.14C325.93,76.84 326.85,72.55 327.78,68.26C328.7,63.97 329.62,59.68 330.54,55.38C330.68,54.75 330.27,54.22 329.65,54.22L307.4,54.22C304.95,54.22 301.12,54.41 298.7,55.76C296.1,57.23 294.98,60.14 294.44,62.65C293.78,65.73 293.09,68.82 292.45,71.89C291.8,74.97 291.15,78.06 290.48,81.14C290.36,81.71 289.8,82.19 289.21,82.19L287.64,82.19C287.02,82.19 286.38,82.71 286.25,83.35C285.82,85.34 285.39,87.33 284.95,89.33C284.82,89.96 285.23,90.48 285.85,90.48ZM279.11,90.48C279.73,90.48 280.37,89.96 280.51,89.33C280.94,87.33 281.37,85.34 281.8,83.35C281.94,82.71 281.53,82.19 280.91,82.19L261.81,82.19C261.22,82.19 260.87,81.71 260.99,81.14C261.35,79.49 261.71,77.83 262.06,76.18C262.19,75.6 262.75,75.13 263.34,75.13L280.53,75.13C281.19,75.13 281.82,74.61 281.96,73.98C282.23,72.75 282.49,71.52 282.76,70.29C282.89,69.66 282.48,69.14 281.83,69.14L264.64,69.14C264.05,69.14 263.69,68.67 263.82,68.08C264.18,66.42 264.54,64.75 264.9,63.08C265.03,62.5 265.59,62.03 266.18,62.03L285.26,62.03C285.88,62.03 286.52,61.51 286.65,60.87C287.05,59.05 287.45,57.21 287.84,55.38C287.98,54.75 287.57,54.22 286.95,54.22L257.55,54.22C256.89,54.22 256.26,54.75 256.12,55.38C254.89,61.04 253.66,66.69 252.44,72.35C251.21,78 249.98,83.66 248.75,89.33C248.61,89.96 249.02,90.48 249.68,90.48ZM241.73,90.48C242.38,90.48 243.02,89.96 243.16,89.33C244.39,83.66 245.62,78 246.85,72.35C248.07,66.69 249.3,61.04 250.53,55.38C250.67,54.75 250.26,54.22 249.61,54.22L227.36,54.22C224.91,54.22 221.24,54.42 218.88,55.8C216.33,57.3 215.22,60.17 214.67,62.65C214,65.73 213.33,68.82 212.66,71.89C211.98,74.97 211.31,78.06 210.64,81.14C210.51,81.72 209.95,82.19 209.36,82.19L207.79,82.19C207.17,82.19 206.53,82.71 206.39,83.35C205.96,85.34 205.52,87.33 205.09,89.33C204.95,89.96 205.36,90.48 205.98,90.48L210,90.48C212.1,90.48 215.9,90.29 217.71,88.57C219.36,87.01 220.34,83.12 220.77,81.14C221.43,78.13 222.09,75.12 222.74,72.11C223.4,69.1 224.05,66.09 224.71,63.08C224.84,62.5 225.4,62.03 225.99,62.03L237.59,62.03C238.17,62.03 238.56,62.5 238.44,63.08C237.48,67.45 236.53,71.83 235.58,76.2C234.63,80.58 233.68,84.95 232.72,89.33C232.59,89.96 232.96,90.48 233.62,90.48ZM198.85,90.48C199.47,90.48 200.11,89.96 200.25,89.33C200.68,87.34 201.12,85.34 201.55,83.35C201.69,82.71 201.29,82.19 200.66,82.19L179.18,82.19C178.59,82.19 178.24,81.72 178.37,81.14C179.03,78.13 179.69,75.12 180.35,72.11C181.01,69.1 181.67,66.09 182.33,63.08C182.45,62.5 183.01,62.03 183.6,62.03L205.04,62.03C205.66,62.03 206.3,61.51 206.44,60.87C206.84,59.04 207.24,57.21 207.64,55.38C207.78,54.75 207.37,54.22 206.75,54.22L185.31,54.22C182.83,54.22 178.68,54.38 176.29,55.76C173.64,57.28 172.5,60.53 171.94,63.08C171.27,66.09 170.61,69.1 169.95,72.11C169.29,75.12 168.63,78.13 167.97,81.14C167.58,82.92 167.16,85.35 167.64,86.95C168.18,88.73 169.71,89.57 171.52,89.98C173.36,90.38 175.37,90.48 177.36,90.48ZM160.09,90.48C160.71,90.48 161.35,89.97 161.49,89.33C162.74,83.67 163.98,78.01 165.22,72.35C166.47,66.69 167.71,61.04 168.95,55.38C169.09,54.74 168.69,54.22 168.07,54.22L133.93,54.22C133.31,54.22 132.67,54.74 132.53,55.38C131.28,61.04 130.03,66.69 128.78,72.35C127.53,78.01 126.28,83.67 125.03,89.33C124.89,89.97 125.29,90.48 125.92,90.48L134.06,90.48C134.68,90.48 135.32,89.97 135.46,89.33C136.43,84.95 137.39,80.58 138.36,76.2C139.32,71.83 140.29,67.45 141.25,63.08C141.38,62.5 141.97,62.03 142.53,62.03L156.02,62.03C156.61,62.03 156.97,62.5 156.84,63.08C155.88,67.45 154.91,71.83 153.95,76.2C152.99,80.58 152.02,84.95 151.06,89.33C150.92,89.97 151.33,90.48 151.95,90.48ZM117.87,90.48C118.52,90.48 119.16,89.97 119.3,89.33C120.55,83.67 121.81,78.01 123.06,72.35C124.31,66.69 125.56,61.04 126.81,55.38C126.95,54.74 126.54,54.22 125.89,54.22L117.27,54.22C116.84,54.22 116.47,54.4 116.17,54.74C113.08,58.19 110.04,61.64 106.98,65.08C103.93,68.53 100.88,71.99 97.82,75.44C97.48,75.82 96.95,75.99 96.55,75.86C96.13,75.72 95.92,75.32 96.03,74.85C96.74,71.6 97.47,68.36 98.19,65.11C98.91,61.87 99.63,58.63 100.35,55.38C100.49,54.74 100.08,54.22 99.46,54.22L91.78,54.22C91.13,54.22 90.49,54.74 90.35,55.38C89.09,61.03 87.84,66.69 86.58,72.35C85.32,78.01 84.06,83.67 82.8,89.33C82.66,89.97 83.07,90.48 83.72,90.48L92.42,90.48C92.82,90.48 93.22,90.31 93.52,89.97C96.58,86.53 99.63,83.06 102.68,79.61C105.74,76.17 108.79,72.71 111.88,69.26C112.22,68.87 112.72,68.7 113.15,68.84C113.54,68.97 113.78,69.37 113.68,69.84C112.96,73.09 112.24,76.34 111.52,79.59C110.8,82.83 110.08,86.08 109.36,89.33C109.22,89.97 109.63,90.48 110.25,90.48ZM75.61,90.48C76.23,90.48 76.87,89.97 77.02,89.33C78.27,83.67 79.53,78.01 80.79,72.35C82.05,66.69 83.31,61.03 84.57,55.38C84.71,54.74 84.3,54.22 83.68,54.22L61.43,54.22C59.02,54.22 55.31,54.42 52.95,55.8C50.39,57.29 49.29,60.16 48.74,62.65C48.05,65.73 47.37,68.82 46.67,71.89C45.96,74.98 45.26,78.06 44.57,81.14C44.44,81.72 43.85,82.19 43.29,82.19L41.75,82.19C41.1,82.19 40.46,82.72 40.32,83.35C39.87,85.35 39.42,87.34 38.98,89.33C38.84,89.97 39.24,90.48 39.9,90.48L43.86,90.48C45.95,90.48 49.78,90.28 51.58,88.58C53.22,87.01 54.23,83.12 54.67,81.14C55.35,78.13 56.03,75.13 56.72,72.11C57.41,69.1 58.07,66.09 58.74,63.08C58.87,62.5 59.43,62.02 60.02,62.02L71.62,62.02C72.18,62.02 72.56,62.5 72.43,63.08C71.46,67.45 70.48,71.83 69.51,76.2C68.53,80.58 67.56,84.95 66.58,89.33C66.44,89.97 66.85,90.48 67.47,90.48ZM9.03,54.22C8.38,54.22 7.8,54.74 7.66,55.38C7.25,57.21 6.84,59.04 6.43,60.87C6.29,61.5 6.63,62.02 7.28,62.02L28.65,62.02C29.24,62.02 29.62,62.49 29.49,63.08C29.12,64.75 28.74,66.41 28.37,68.08C28.24,68.66 27.64,69.13 27.06,69.13L11.33,69.13C10.71,69.13 10.07,69.65 9.93,70.29C9.65,71.52 9.38,72.75 9.1,73.98C8.96,74.61 9.37,75.14 9.99,75.14L25.74,75.14C26.33,75.14 26.72,75.61 26.59,76.18C26.22,77.84 25.84,79.49 25.47,81.14C25.35,81.72 24.75,82.19 24.16,82.19L2.74,82.19C2.09,82.19 1.51,82.72 1.37,83.35C0.92,85.35 0.47,87.34 0.03,89.33C-0.11,89.97 0.23,90.48 0.88,90.48L22.3,90.48C24.33,90.48 26.38,90.39 28.43,89.98C30.42,89.58 32.34,88.73 33.66,86.95C34.83,85.37 35.51,82.91 35.91,81.14C36.58,78.13 37.24,75.12 37.89,72.11C38.55,69.09 39.24,66.09 39.92,63.08C40.49,60.52 40.79,57.28 38.81,55.75C37.03,54.38 32.88,54.22 30.4,54.22Z"/>
</svg>